<mxfile host="app.diagrams.net" modified="2024-02-06T13:54:38.969Z" agent="Mozilla/5.0 (Windows NT 10.0; Win64; x64) AppleWebKit/537.36 (KHTML, like Gecko) Chrome/121.0.0.0 Safari/537.36" etag="OICkOOMK__wnpgg8dvJh" version="23.1.1" type="device">
  <diagram name="Página-1" id="EuComniTnAEOICFhOrzw">
    <mxGraphModel dx="2022" dy="1791" grid="1" gridSize="10" guides="1" tooltips="1" connect="1" arrows="1" fold="1" page="1" pageScale="1" pageWidth="827" pageHeight="1169" math="0" shadow="0">
      <root>
        <mxCell id="0" />
        <mxCell id="1" parent="0" />
        <mxCell id="BvSH7AAZq17h7WxgkTxJ-1" value="Matrícula" style="rounded=0;whiteSpace=wrap;html=1;align=center;fontStyle=1" vertex="1" parent="1">
          <mxGeometry x="-10" y="120" width="120" height="60" as="geometry" />
        </mxCell>
        <mxCell id="BvSH7AAZq17h7WxgkTxJ-2" value="" style="endArrow=none;html=1;rounded=0;exitX=1;exitY=0;exitDx=0;exitDy=0;entryX=0.5;entryY=1;entryDx=0;entryDy=0;" edge="1" parent="1" source="BvSH7AAZq17h7WxgkTxJ-3" target="BvSH7AAZq17h7WxgkTxJ-1">
          <mxGeometry width="50" height="50" relative="1" as="geometry">
            <mxPoint x="50" y="260" as="sourcePoint" />
            <mxPoint x="100" y="190" as="targetPoint" />
          </mxGeometry>
        </mxCell>
        <mxCell id="BvSH7AAZq17h7WxgkTxJ-3" value="Nome Completo" style="ellipse;whiteSpace=wrap;html=1;" vertex="1" parent="1">
          <mxGeometry x="-150" y="190" width="100" height="40" as="geometry" />
        </mxCell>
        <mxCell id="BvSH7AAZq17h7WxgkTxJ-4" value="CPF" style="ellipse;whiteSpace=wrap;html=1;" vertex="1" parent="1">
          <mxGeometry x="5" y="245" width="70" height="40" as="geometry" />
        </mxCell>
        <mxCell id="BvSH7AAZq17h7WxgkTxJ-6" value="" style="endArrow=none;html=1;rounded=0;exitX=0.5;exitY=0;exitDx=0;exitDy=0;entryX=0.5;entryY=1;entryDx=0;entryDy=0;" edge="1" parent="1" source="BvSH7AAZq17h7WxgkTxJ-4" target="BvSH7AAZq17h7WxgkTxJ-1">
          <mxGeometry width="50" height="50" relative="1" as="geometry">
            <mxPoint x="160" y="250" as="sourcePoint" />
            <mxPoint x="143" y="180" as="targetPoint" />
          </mxGeometry>
        </mxCell>
        <mxCell id="BvSH7AAZq17h7WxgkTxJ-7" style="edgeStyle=orthogonalEdgeStyle;rounded=0;orthogonalLoop=1;jettySize=auto;html=1;exitX=0.5;exitY=1;exitDx=0;exitDy=0;" edge="1" parent="1" source="BvSH7AAZq17h7WxgkTxJ-4" target="BvSH7AAZq17h7WxgkTxJ-4">
          <mxGeometry relative="1" as="geometry" />
        </mxCell>
        <mxCell id="BvSH7AAZq17h7WxgkTxJ-11" value="" style="endArrow=none;html=1;rounded=0;entryX=0.5;entryY=1;entryDx=0;entryDy=0;exitX=1;exitY=0;exitDx=0;exitDy=0;" edge="1" parent="1" source="BvSH7AAZq17h7WxgkTxJ-12" target="BvSH7AAZq17h7WxgkTxJ-1">
          <mxGeometry width="50" height="50" relative="1" as="geometry">
            <mxPoint x="80" y="280" as="sourcePoint" />
            <mxPoint x="130" y="230" as="targetPoint" />
          </mxGeometry>
        </mxCell>
        <mxCell id="BvSH7AAZq17h7WxgkTxJ-12" value="Telefone" style="ellipse;shape=doubleEllipse;whiteSpace=wrap;html=1;" vertex="1" parent="1">
          <mxGeometry x="-170" y="240" width="100" height="50" as="geometry" />
        </mxCell>
        <mxCell id="BvSH7AAZq17h7WxgkTxJ-14" value="Endereço" style="ellipse;whiteSpace=wrap;html=1;" vertex="1" parent="1">
          <mxGeometry x="80" y="260" width="90" height="50" as="geometry" />
        </mxCell>
        <mxCell id="BvSH7AAZq17h7WxgkTxJ-15" value="" style="endArrow=none;html=1;rounded=0;exitX=0.422;exitY=-0.02;exitDx=0;exitDy=0;exitPerimeter=0;entryX=0.5;entryY=1;entryDx=0;entryDy=0;" edge="1" parent="1" source="BvSH7AAZq17h7WxgkTxJ-14" target="BvSH7AAZq17h7WxgkTxJ-1">
          <mxGeometry width="50" height="50" relative="1" as="geometry">
            <mxPoint x="240" y="260" as="sourcePoint" />
            <mxPoint x="190" y="180" as="targetPoint" />
          </mxGeometry>
        </mxCell>
        <mxCell id="BvSH7AAZq17h7WxgkTxJ-16" value="Email" style="ellipse;whiteSpace=wrap;html=1;" vertex="1" parent="1">
          <mxGeometry x="-80" y="280" width="70" height="40" as="geometry" />
        </mxCell>
        <mxCell id="BvSH7AAZq17h7WxgkTxJ-17" value="" style="endArrow=none;html=1;rounded=0;exitX=0.5;exitY=0;exitDx=0;exitDy=0;entryX=0.5;entryY=1;entryDx=0;entryDy=0;" edge="1" parent="1" source="BvSH7AAZq17h7WxgkTxJ-16" target="BvSH7AAZq17h7WxgkTxJ-1">
          <mxGeometry width="50" height="50" relative="1" as="geometry">
            <mxPoint x="120" y="230" as="sourcePoint" />
            <mxPoint x="170" y="180" as="targetPoint" />
          </mxGeometry>
        </mxCell>
        <mxCell id="BvSH7AAZq17h7WxgkTxJ-19" value="CEP" style="ellipse;whiteSpace=wrap;html=1;" vertex="1" parent="1">
          <mxGeometry x="40" y="330" width="70" height="40" as="geometry" />
        </mxCell>
        <mxCell id="BvSH7AAZq17h7WxgkTxJ-20" value="Número" style="ellipse;whiteSpace=wrap;html=1;" vertex="1" parent="1">
          <mxGeometry x="130" y="330" width="80" height="40" as="geometry" />
        </mxCell>
        <mxCell id="BvSH7AAZq17h7WxgkTxJ-22" value="" style="endArrow=none;html=1;rounded=0;exitX=0.757;exitY=0.075;exitDx=0;exitDy=0;exitPerimeter=0;entryX=0.5;entryY=1;entryDx=0;entryDy=0;" edge="1" parent="1" source="BvSH7AAZq17h7WxgkTxJ-19" target="BvSH7AAZq17h7WxgkTxJ-14">
          <mxGeometry width="50" height="50" relative="1" as="geometry">
            <mxPoint x="200" y="370" as="sourcePoint" />
            <mxPoint x="250" y="320" as="targetPoint" />
          </mxGeometry>
        </mxCell>
        <mxCell id="BvSH7AAZq17h7WxgkTxJ-23" value="" style="endArrow=none;html=1;rounded=0;entryX=0.5;entryY=1;entryDx=0;entryDy=0;exitX=0.5;exitY=0;exitDx=0;exitDy=0;" edge="1" parent="1" source="BvSH7AAZq17h7WxgkTxJ-20" target="BvSH7AAZq17h7WxgkTxJ-14">
          <mxGeometry width="50" height="50" relative="1" as="geometry">
            <mxPoint x="310" y="350" as="sourcePoint" />
            <mxPoint x="360" y="300" as="targetPoint" />
          </mxGeometry>
        </mxCell>
        <mxCell id="BvSH7AAZq17h7WxgkTxJ-24" value="Possui" style="rhombus;whiteSpace=wrap;html=1;" vertex="1" parent="1">
          <mxGeometry x="210" y="120" width="90" height="60" as="geometry" />
        </mxCell>
        <mxCell id="BvSH7AAZq17h7WxgkTxJ-25" value="Contrato" style="rounded=0;whiteSpace=wrap;html=1;fontStyle=1" vertex="1" parent="1">
          <mxGeometry x="400" y="120" width="120" height="60" as="geometry" />
        </mxCell>
        <mxCell id="BvSH7AAZq17h7WxgkTxJ-29" value="1" style="endArrow=none;html=1;rounded=0;entryX=0;entryY=0.5;entryDx=0;entryDy=0;exitX=1;exitY=0.5;exitDx=0;exitDy=0;" edge="1" parent="1" source="BvSH7AAZq17h7WxgkTxJ-1" target="BvSH7AAZq17h7WxgkTxJ-24">
          <mxGeometry width="50" height="50" relative="1" as="geometry">
            <mxPoint x="210" y="180" as="sourcePoint" />
            <mxPoint x="260" y="130" as="targetPoint" />
          </mxGeometry>
        </mxCell>
        <mxCell id="BvSH7AAZq17h7WxgkTxJ-31" value="N" style="endArrow=none;html=1;rounded=0;exitX=1;exitY=0.5;exitDx=0;exitDy=0;entryX=0;entryY=0.5;entryDx=0;entryDy=0;" edge="1" parent="1" source="BvSH7AAZq17h7WxgkTxJ-24" target="BvSH7AAZq17h7WxgkTxJ-25">
          <mxGeometry width="50" height="50" relative="1" as="geometry">
            <mxPoint x="380" y="160" as="sourcePoint" />
            <mxPoint x="439" y="125" as="targetPoint" />
          </mxGeometry>
        </mxCell>
        <mxCell id="BvSH7AAZq17h7WxgkTxJ-34" value="Tipo" style="ellipse;whiteSpace=wrap;html=1;" vertex="1" parent="1">
          <mxGeometry x="400" y="275" width="110" height="45" as="geometry" />
        </mxCell>
        <mxCell id="BvSH7AAZq17h7WxgkTxJ-36" value="" style="endArrow=none;html=1;rounded=0;exitX=0.5;exitY=0;exitDx=0;exitDy=0;entryX=0.5;entryY=1;entryDx=0;entryDy=0;" edge="1" parent="1" source="BvSH7AAZq17h7WxgkTxJ-34" target="BvSH7AAZq17h7WxgkTxJ-25">
          <mxGeometry width="50" height="50" relative="1" as="geometry">
            <mxPoint x="410" y="240" as="sourcePoint" />
            <mxPoint x="460" y="180" as="targetPoint" />
          </mxGeometry>
        </mxCell>
        <mxCell id="BvSH7AAZq17h7WxgkTxJ-42" value="Contém" style="rhombus;whiteSpace=wrap;html=1;" vertex="1" parent="1">
          <mxGeometry x="650" y="122.5" width="90" height="55" as="geometry" />
        </mxCell>
        <mxCell id="BvSH7AAZq17h7WxgkTxJ-43" value="1" style="endArrow=none;html=1;rounded=0;entryX=0;entryY=0.5;entryDx=0;entryDy=0;exitX=1;exitY=0.5;exitDx=0;exitDy=0;" edge="1" parent="1" source="BvSH7AAZq17h7WxgkTxJ-25" target="BvSH7AAZq17h7WxgkTxJ-42">
          <mxGeometry width="50" height="50" relative="1" as="geometry">
            <mxPoint x="390" y="410" as="sourcePoint" />
            <mxPoint x="440" y="360" as="targetPoint" />
          </mxGeometry>
        </mxCell>
        <mxCell id="BvSH7AAZq17h7WxgkTxJ-44" value="Pagamentos" style="rounded=0;whiteSpace=wrap;html=1;fontStyle=1" vertex="1" parent="1">
          <mxGeometry x="860" y="120" width="120" height="60" as="geometry" />
        </mxCell>
        <mxCell id="BvSH7AAZq17h7WxgkTxJ-45" value="N" style="endArrow=none;html=1;rounded=0;entryX=0;entryY=0.5;entryDx=0;entryDy=0;" edge="1" parent="1" source="BvSH7AAZq17h7WxgkTxJ-42" target="BvSH7AAZq17h7WxgkTxJ-44">
          <mxGeometry width="50" height="50" relative="1" as="geometry">
            <mxPoint x="390" y="410" as="sourcePoint" />
            <mxPoint x="440" y="360" as="targetPoint" />
          </mxGeometry>
        </mxCell>
        <mxCell id="BvSH7AAZq17h7WxgkTxJ-46" value="Tipo" style="ellipse;whiteSpace=wrap;html=1;" vertex="1" parent="1">
          <mxGeometry x="780" y="225" width="100" height="50" as="geometry" />
        </mxCell>
        <mxCell id="BvSH7AAZq17h7WxgkTxJ-53" value="" style="endArrow=none;html=1;rounded=0;entryX=0.5;entryY=1;entryDx=0;entryDy=0;exitX=0.96;exitY=0.28;exitDx=0;exitDy=0;exitPerimeter=0;" edge="1" parent="1" source="BvSH7AAZq17h7WxgkTxJ-46" target="BvSH7AAZq17h7WxgkTxJ-44">
          <mxGeometry width="50" height="50" relative="1" as="geometry">
            <mxPoint x="850" y="250" as="sourcePoint" />
            <mxPoint x="900" y="200" as="targetPoint" />
          </mxGeometry>
        </mxCell>
        <mxCell id="BvSH7AAZq17h7WxgkTxJ-59" value="" style="endArrow=none;html=1;rounded=0;exitX=0;exitY=0.5;exitDx=0;exitDy=0;entryX=0.5;entryY=1;entryDx=0;entryDy=0;" edge="1" parent="1" target="BvSH7AAZq17h7WxgkTxJ-1">
          <mxGeometry width="50" height="50" relative="1" as="geometry">
            <mxPoint x="130" y="220" as="sourcePoint" />
            <mxPoint x="70" y="181" as="targetPoint" />
          </mxGeometry>
        </mxCell>
        <mxCell id="BvSH7AAZq17h7WxgkTxJ-61" value="" style="endArrow=none;html=1;rounded=0;exitX=0.5;exitY=0;exitDx=0;exitDy=0;" edge="1" parent="1" source="BvSH7AAZq17h7WxgkTxJ-82">
          <mxGeometry width="50" height="50" relative="1" as="geometry">
            <mxPoint x="908.9700000000003" y="273.9999999999999" as="sourcePoint" />
            <mxPoint x="920" y="180" as="targetPoint" />
          </mxGeometry>
        </mxCell>
        <mxCell id="BvSH7AAZq17h7WxgkTxJ-63" value="data" style="ellipse;whiteSpace=wrap;html=1;" vertex="1" parent="1">
          <mxGeometry x="330" y="40" width="80" height="40" as="geometry" />
        </mxCell>
        <mxCell id="BvSH7AAZq17h7WxgkTxJ-66" value="" style="endArrow=none;html=1;rounded=0;entryX=0.5;entryY=1;entryDx=0;entryDy=0;exitX=0.5;exitY=0;exitDx=0;exitDy=0;" edge="1" parent="1" source="BvSH7AAZq17h7WxgkTxJ-76" target="BvSH7AAZq17h7WxgkTxJ-25">
          <mxGeometry width="50" height="50" relative="1" as="geometry">
            <mxPoint x="415" y="340" as="sourcePoint" />
            <mxPoint x="470" y="180" as="targetPoint" />
          </mxGeometry>
        </mxCell>
        <mxCell id="BvSH7AAZq17h7WxgkTxJ-75" value="Id" style="ellipse;whiteSpace=wrap;html=1;align=center;fontStyle=4;" vertex="1" parent="1">
          <mxGeometry x="120" y="210" width="100" height="40" as="geometry" />
        </mxCell>
        <mxCell id="BvSH7AAZq17h7WxgkTxJ-76" value="&lt;span style=&quot;border-bottom: 1px dotted&quot;&gt;id_matricula&lt;/span&gt;" style="ellipse;whiteSpace=wrap;html=1;align=center;" vertex="1" parent="1">
          <mxGeometry x="490" y="235" width="100" height="40" as="geometry" />
        </mxCell>
        <mxCell id="BvSH7AAZq17h7WxgkTxJ-77" value="Id" style="ellipse;whiteSpace=wrap;html=1;align=center;fontStyle=4;" vertex="1" parent="1">
          <mxGeometry x="300" y="230" width="100" height="40" as="geometry" />
        </mxCell>
        <mxCell id="BvSH7AAZq17h7WxgkTxJ-78" value="" style="endArrow=none;html=1;rounded=0;exitX=0.5;exitY=0;exitDx=0;exitDy=0;entryX=0.5;entryY=1;entryDx=0;entryDy=0;" edge="1" parent="1" source="BvSH7AAZq17h7WxgkTxJ-77" target="BvSH7AAZq17h7WxgkTxJ-25">
          <mxGeometry width="50" height="50" relative="1" as="geometry">
            <mxPoint x="395" y="280" as="sourcePoint" />
            <mxPoint x="470" y="190" as="targetPoint" />
          </mxGeometry>
        </mxCell>
        <mxCell id="BvSH7AAZq17h7WxgkTxJ-80" value="&lt;span style=&quot;border-bottom: 1px dotted&quot;&gt;id_contrato&lt;/span&gt;" style="ellipse;whiteSpace=wrap;html=1;align=center;" vertex="1" parent="1">
          <mxGeometry x="980" y="245" width="100" height="40" as="geometry" />
        </mxCell>
        <mxCell id="BvSH7AAZq17h7WxgkTxJ-81" value="" style="endArrow=none;html=1;rounded=0;exitX=0.5;exitY=0;exitDx=0;exitDy=0;" edge="1" parent="1" source="BvSH7AAZq17h7WxgkTxJ-80">
          <mxGeometry width="50" height="50" relative="1" as="geometry">
            <mxPoint x="929" y="284" as="sourcePoint" />
            <mxPoint x="920" y="180" as="targetPoint" />
          </mxGeometry>
        </mxCell>
        <mxCell id="BvSH7AAZq17h7WxgkTxJ-82" value="Id" style="ellipse;whiteSpace=wrap;html=1;align=center;fontStyle=4;" vertex="1" parent="1">
          <mxGeometry x="880" y="270" width="100" height="40" as="geometry" />
        </mxCell>
        <mxCell id="BvSH7AAZq17h7WxgkTxJ-83" value="Frequencia" style="rounded=0;whiteSpace=wrap;html=1;fontStyle=1" vertex="1" parent="1">
          <mxGeometry x="230" y="-100" width="120" height="60" as="geometry" />
        </mxCell>
        <mxCell id="BvSH7AAZq17h7WxgkTxJ-84" value="Id" style="ellipse;whiteSpace=wrap;html=1;align=center;fontStyle=4;" vertex="1" parent="1">
          <mxGeometry x="150" width="100" height="40" as="geometry" />
        </mxCell>
        <mxCell id="BvSH7AAZq17h7WxgkTxJ-85" value="hora" style="ellipse;whiteSpace=wrap;html=1;" vertex="1" parent="1">
          <mxGeometry x="410" width="80" height="40" as="geometry" />
        </mxCell>
        <mxCell id="BvSH7AAZq17h7WxgkTxJ-86" value="Id_contrato" style="ellipse;whiteSpace=wrap;html=1;align=center;" vertex="1" parent="1">
          <mxGeometry x="220" y="40" width="100" height="40" as="geometry" />
        </mxCell>
        <mxCell id="BvSH7AAZq17h7WxgkTxJ-87" value="Possui" style="rhombus;whiteSpace=wrap;html=1;" vertex="1" parent="1">
          <mxGeometry x="5" y="-100" width="90" height="60" as="geometry" />
        </mxCell>
        <mxCell id="BvSH7AAZq17h7WxgkTxJ-88" value="1" style="endArrow=none;html=1;rounded=0;entryX=0.5;entryY=1;entryDx=0;entryDy=0;exitX=0.5;exitY=0;exitDx=0;exitDy=0;" edge="1" parent="1" source="BvSH7AAZq17h7WxgkTxJ-1" target="BvSH7AAZq17h7WxgkTxJ-87">
          <mxGeometry width="50" height="50" relative="1" as="geometry">
            <mxPoint x="120" y="160" as="sourcePoint" />
            <mxPoint x="220" y="160" as="targetPoint" />
          </mxGeometry>
        </mxCell>
        <mxCell id="BvSH7AAZq17h7WxgkTxJ-89" value="N" style="endArrow=none;html=1;rounded=0;exitX=1;exitY=0.5;exitDx=0;exitDy=0;entryX=0;entryY=0.5;entryDx=0;entryDy=0;" edge="1" parent="1" source="BvSH7AAZq17h7WxgkTxJ-87" target="BvSH7AAZq17h7WxgkTxJ-83">
          <mxGeometry width="50" height="50" relative="1" as="geometry">
            <mxPoint x="310" y="160" as="sourcePoint" />
            <mxPoint x="410" y="160" as="targetPoint" />
          </mxGeometry>
        </mxCell>
        <mxCell id="BvSH7AAZq17h7WxgkTxJ-90" value="" style="endArrow=none;html=1;rounded=0;exitX=0.5;exitY=0;exitDx=0;exitDy=0;entryX=0.5;entryY=1;entryDx=0;entryDy=0;" edge="1" parent="1" source="BvSH7AAZq17h7WxgkTxJ-84" target="BvSH7AAZq17h7WxgkTxJ-83">
          <mxGeometry width="50" height="50" relative="1" as="geometry">
            <mxPoint x="280" y="47.5" as="sourcePoint" />
            <mxPoint x="285" y="-47.5" as="targetPoint" />
          </mxGeometry>
        </mxCell>
        <mxCell id="BvSH7AAZq17h7WxgkTxJ-91" value="" style="endArrow=none;html=1;rounded=0;entryX=0.5;entryY=1;entryDx=0;entryDy=0;exitX=0.5;exitY=0;exitDx=0;exitDy=0;" edge="1" parent="1" source="BvSH7AAZq17h7WxgkTxJ-86" target="BvSH7AAZq17h7WxgkTxJ-83">
          <mxGeometry width="50" height="50" relative="1" as="geometry">
            <mxPoint x="440" y="130" as="sourcePoint" />
            <mxPoint x="490" y="80" as="targetPoint" />
          </mxGeometry>
        </mxCell>
        <mxCell id="BvSH7AAZq17h7WxgkTxJ-92" value="" style="endArrow=none;html=1;rounded=0;exitX=0.5;exitY=0;exitDx=0;exitDy=0;entryX=0.5;entryY=1;entryDx=0;entryDy=0;" edge="1" parent="1" source="BvSH7AAZq17h7WxgkTxJ-63" target="BvSH7AAZq17h7WxgkTxJ-83">
          <mxGeometry width="50" height="50" relative="1" as="geometry">
            <mxPoint x="240" y="10" as="sourcePoint" />
            <mxPoint x="290" y="-40" as="targetPoint" />
          </mxGeometry>
        </mxCell>
        <mxCell id="BvSH7AAZq17h7WxgkTxJ-93" value="" style="endArrow=none;html=1;rounded=0;entryX=0.5;entryY=0;entryDx=0;entryDy=0;exitX=0.5;exitY=1;exitDx=0;exitDy=0;" edge="1" parent="1" source="BvSH7AAZq17h7WxgkTxJ-83" target="BvSH7AAZq17h7WxgkTxJ-85">
          <mxGeometry width="50" height="50" relative="1" as="geometry">
            <mxPoint x="370" y="-30" as="sourcePoint" />
            <mxPoint x="420" y="-80" as="targetPoint" />
          </mxGeometry>
        </mxCell>
      </root>
    </mxGraphModel>
  </diagram>
</mxfile>
